<svg 
 xmlns="http://www.w3.org/2000/svg"
 xmlns:xlink="http://www.w3.org/1999/xlink"
 width="50px" height="39px">
<path fill-rule="evenodd"  fill="rgb(194, 152, 114)"
 d="M49.890,19.449 C49.890,19.449 48.408,32.416 36.152,32.416 C23.897,32.416 21.691,16.568 21.691,16.568 C21.691,16.568 21.466,8.644 18.076,8.644 C16.325,8.644 13.015,9.364 13.015,9.364 C13.015,9.364 12.282,4.322 18.799,4.322 C25.316,4.322 26.030,16.568 26.030,16.568 C26.030,16.568 27.012,28.094 36.152,28.094 C45.293,28.094 44.829,20.890 44.829,20.890 C44.829,20.890 40.212,20.890 32.537,20.890 C29.562,20.890 27.476,19.265 27.476,16.568 C29.945,16.568 44.737,16.568 46.998,16.568 C50.211,16.568 49.890,19.449 49.890,19.449 ZM18.076,14.407 C18.076,15.600 17.105,16.568 15.907,16.568 C14.709,16.568 5.784,15.800 5.784,14.407 C5.784,13.013 14.709,12.246 15.907,12.246 C17.105,12.246 18.076,13.213 18.076,14.407 ZM19.522,21.611 C19.522,22.804 18.551,23.771 17.353,23.771 C16.155,23.771 -0.000,23.036 -0.000,21.611 C-0.000,20.185 16.155,19.449 17.353,19.449 C18.551,19.449 19.522,20.417 19.522,21.611 ZM20.968,26.653 C22.166,26.653 23.137,27.621 23.137,28.814 C23.137,30.007 22.166,30.975 20.968,30.975 C19.770,30.975 13.738,30.141 13.738,28.814 C13.738,27.487 19.770,26.653 20.968,26.653 ZM30.481,33.525 C31.369,34.848 30.743,36.817 29.083,37.922 C27.423,39.028 25.357,38.851 24.470,37.528 C23.582,36.205 24.209,34.236 25.869,33.131 C27.529,32.026 29.594,32.202 30.481,33.525 ZM47.112,33.525 C47.999,34.848 47.373,36.817 45.713,37.922 C44.053,39.028 41.988,38.851 41.100,37.528 C40.212,36.205 40.839,34.236 42.499,33.131 C44.159,32.026 46.224,32.202 47.112,33.525 Z"/>
<path fill-rule="evenodd"  fill="rgb(194, 152, 114)"
 d="M42.660,14.407 C42.660,14.407 41.285,14.407 38.321,14.407 C35.358,14.407 31.813,13.368 32.537,9.364 C33.260,5.368 40.491,7.022 40.491,5.042 C40.491,3.062 32.537,3.601 32.537,3.601 C32.537,3.601 31.885,3.601 28.199,3.601 C23.609,3.601 23.137,-0.000 23.137,-0.000 C23.137,-0.000 28.202,-0.000 34.706,-0.000 C41.211,-0.000 44.829,0.866 44.829,5.042 C44.829,10.078 37.344,8.627 36.184,9.928 C33.995,12.384 42.660,14.407 42.660,14.407 Z"/>
</svg>