<svg 
 xmlns="http://www.w3.org/2000/svg"
 xmlns:xlink="http://www.w3.org/1999/xlink"
 width="120px" height="33px">
<path fill-rule="evenodd"  fill="rgb(101, 76, 53)"
 d="M119.872,22.765 C119.872,22.765 113.826,22.765 113.826,22.765 C113.826,22.765 113.675,22.735 113.675,22.616 C113.675,22.616 113.917,15.819 113.917,13.762 C113.917,9.022 111.862,10.036 112.134,9.231 C112.466,8.277 114.098,7.114 115.791,7.114 C118.239,7.114 119.993,8.843 119.993,11.645 C119.993,13.971 119.993,22.586 119.993,22.586 C119.993,22.735 119.872,22.765 119.872,22.765 ZM116.244,6.309 C114.310,6.309 112.738,5.087 112.738,3.537 C112.738,2.017 114.310,0.765 116.244,0.765 C118.179,0.765 119.781,2.017 119.781,3.537 C119.781,5.087 118.179,6.309 116.244,6.309 ZM112.375,21.244 C112.043,22.169 110.410,23.331 108.718,23.331 C106.299,23.331 104.274,21.602 104.274,18.800 C104.274,17.786 104.274,15.074 104.274,13.017 C104.274,10.036 101.221,11.079 101.191,14.597 C101.191,17.995 101.191,22.586 101.191,22.586 C101.191,22.735 101.040,22.765 101.040,22.765 C101.040,22.765 94.995,22.765 94.995,22.765 C94.995,22.765 94.874,22.735 94.874,22.616 C94.874,22.616 95.116,15.819 95.116,13.762 C95.116,9.022 93.030,10.036 93.332,9.231 C93.634,8.277 95.267,7.114 96.959,7.114 C99.075,7.114 100.707,8.426 101.100,10.602 C102.430,8.038 104.607,7.114 106.209,7.114 C108.476,7.114 110.380,9.052 110.380,12.033 C110.380,13.285 110.350,14.448 110.350,16.684 C110.350,21.423 112.677,20.410 112.375,21.244 ZM86.591,22.765 C86.591,22.765 86.440,22.735 86.440,22.616 C86.440,22.616 86.470,19.635 86.561,13.851 C86.561,10.960 84.868,10.334 82.027,10.572 C82.027,10.572 82.027,17.250 82.027,17.250 C82.027,17.608 82.057,17.906 82.088,18.204 C82.480,20.618 84.355,20.082 85.533,20.082 C86.077,20.082 86.138,20.469 85.926,20.857 C85.110,22.467 82.843,23.570 80.667,23.570 C79.700,23.540 78.763,23.331 77.977,22.884 C76.737,22.139 75.921,20.767 75.921,18.889 C75.921,18.889 75.921,10.572 75.921,10.572 C75.921,10.572 74.380,10.572 74.380,10.572 C74.380,10.572 74.259,10.572 74.259,10.423 C74.259,10.423 74.259,7.889 74.259,7.889 C74.259,7.770 74.380,7.770 74.380,7.770 C74.380,7.770 75.921,7.770 75.921,7.770 C75.921,7.770 75.921,5.505 75.921,5.505 C75.921,5.355 76.073,5.355 76.073,5.355 C76.073,5.355 81.876,3.000 81.876,3.000 C81.876,3.000 82.027,3.030 81.997,3.149 C81.997,3.149 82.027,5.236 82.027,7.770 C82.027,7.770 88.042,7.740 88.042,7.740 C90.491,7.740 92.697,9.410 92.697,12.212 C92.697,12.212 92.727,22.586 92.727,22.586 C92.727,22.735 92.606,22.765 92.606,22.765 C92.606,22.765 86.591,22.765 86.591,22.765 ZM88.949,6.309 C87.015,6.309 85.443,5.087 85.443,3.537 C85.443,2.017 87.015,0.765 88.949,0.765 C90.883,0.765 92.486,2.017 92.486,3.537 C92.486,5.087 90.883,6.309 88.949,6.309 ZM64.797,16.922 C65.855,19.903 69.875,20.201 73.563,18.174 C73.684,18.084 73.835,18.055 73.956,18.144 C74.077,18.234 74.137,18.353 74.047,18.621 C73.714,19.873 71.205,23.391 66.792,23.391 C62.228,23.391 58.571,19.754 58.571,15.252 C58.571,10.900 61.986,7.144 67.185,7.144 C72.142,7.144 74.289,10.214 74.289,12.331 C74.289,17.011 68.757,17.578 64.797,16.922 ZM66.974,10.513 C66.974,10.513 66.974,10.542 66.943,10.542 C66.913,10.542 66.883,10.542 66.853,10.542 C66.641,10.572 66.369,10.662 66.127,10.811 C65.130,11.407 64.676,12.838 64.555,14.299 C67.246,14.537 68.576,13.553 68.576,11.944 C68.576,11.139 67.911,10.453 66.974,10.513 ZM51.588,23.331 C49.502,23.331 48.021,22.169 47.084,20.499 C47.084,21.719 47.080,22.780 47.072,23.702 C47.057,25.519 47.034,25.767 47.012,25.433 C46.998,26.097 46.983,26.767 46.963,27.438 C46.540,29.554 44.938,30.836 42.852,30.836 C41.160,30.836 39.528,29.673 39.195,28.720 C38.923,27.915 40.737,28.928 40.737,24.188 C40.737,23.472 40.740,21.388 40.745,18.975 C40.740,16.563 40.737,14.478 40.737,13.762 C40.737,9.022 38.923,10.036 39.195,9.231 C39.528,8.277 41.160,7.114 42.852,7.114 C44.938,7.114 46.540,8.396 46.963,10.513 C47.991,8.545 49.623,7.114 51.739,7.114 C55.548,7.114 57.633,11.258 57.633,15.252 C57.633,19.337 55.548,23.331 51.588,23.331 ZM49.170,11.228 C47.990,11.228 47.253,12.364 47.002,13.956 C47.017,14.739 47.032,15.702 47.044,16.799 C47.330,18.269 48.052,19.307 49.170,19.307 C50.651,19.307 51.437,17.488 51.437,15.252 C51.437,13.017 50.651,11.228 49.170,11.228 ZM33.179,23.331 C31.093,23.331 29.612,22.169 28.675,20.499 C28.675,25.000 28.675,29.144 28.675,29.144 C28.675,29.257 28.590,29.301 28.547,29.316 C28.549,29.820 28.550,30.273 28.552,30.650 C27.877,32.132 26.490,32.997 24.776,32.997 C23.084,32.997 21.451,31.835 21.119,30.881 C20.918,30.286 21.854,30.678 22.357,29.014 C22.354,27.507 22.328,15.687 22.328,13.762 C22.328,9.022 20.514,10.036 20.786,9.231 C21.119,8.277 22.751,7.114 24.444,7.114 C26.529,7.114 28.131,8.396 28.554,10.513 C29.582,8.545 31.214,7.114 33.330,7.114 C37.139,7.114 39.224,11.258 39.224,15.252 C39.224,19.337 37.139,23.331 33.179,23.331 ZM30.761,11.228 C29.510,11.228 28.758,12.505 28.553,14.248 C28.552,14.858 28.551,15.526 28.550,16.235 C28.751,17.997 29.505,19.307 30.761,19.307 C32.242,19.307 33.028,17.488 33.028,15.252 C33.028,13.017 32.242,11.228 30.761,11.228 ZM21.269,22.765 C21.269,22.765 14.438,22.765 14.438,22.765 C14.438,22.765 14.286,22.765 14.256,22.616 C14.256,22.616 13.501,19.456 13.501,19.456 C13.501,19.456 8.151,19.456 8.151,19.456 C7.788,21.334 7.486,22.616 7.486,22.616 C7.425,22.765 7.274,22.765 7.274,22.765 C7.274,22.765 0.957,22.765 0.957,22.765 C0.957,22.765 0.805,22.765 0.896,22.616 C0.896,22.616 6.095,6.578 6.095,6.548 C7.334,3.418 5.702,3.358 5.944,2.672 C6.337,1.510 8.513,0.616 10.266,0.616 C12.473,0.616 14.710,2.046 15.889,5.296 C17.158,8.813 21.360,22.616 21.360,22.616 C21.420,22.765 21.269,22.765 21.269,22.765 ZM10.750,6.786 C10.206,8.962 9.571,12.719 8.997,15.431 C8.997,15.431 12.533,15.431 12.533,15.431 C12.533,15.431 10.750,6.786 10.750,6.786 Z"/>
</svg>