<svg xmlns="http://www.w3.org/2000/svg" width="134.5" height="51.5">
    <path fill-rule="evenodd" stroke="#FFC62E" fill="#FFFAD9" d="M4.925 50.396l-3.86-7.414 5.386-1.97-1.22-5.608 5.58-1.332-.528-5.69 5.69-.667.14-5.718 5.747.027.832-5.69 5.69.694 1.472-5.524 5.58 1.36 2.11-5.302 5.386 2 2.75-5.026 5.08 2.637 3.33-4.663 4.748 3.22 3.83-4.247L67 5.258l4.33-3.775 3.86 4.247 4.747-3.22 3.304 4.663 5.11-2.637 2.72 5.025 5.386-1.998 2.137 5.302 5.552-1.36 1.5 5.524 5.69-.694.806 5.69 5.748-.027.138 5.718 5.692.666-.528 5.692 5.58 1.332-1.193 5.608 5.385 1.97-3.887 7.414"/>
</svg>